<svg width="112" height="112" xmlns="http://www.w3.org/2000/svg" xml:space="preserve" version="1.1">

 <g>
  <title>Web-ui</title>
     <g stroke="null" id="svg_27">
   <g stroke="null" id="svg_28">
    <circle stroke="#4285F4" id="svg_29" stroke-miterlimit="10" stroke-width="12" fill="none" r="49" cy="56.3" cx="56.3" class="st8"/>
       <path stroke="null" id="svg_30" fill="#4285F4" d="m56.2,23c-18.4,0 -33.3,15 -33.3,33.4c0,18.4 15,33.3 33.4,33.3c18.4,0 33.3,-14.9 33.3,-33.3c0,-18.5 -14.9,-33.4 -33.4,-33.4c0.1,0 0,0 0,0zm23.1,20l-9.8,0c-1,-4.1 -2.6,-8.1 -4.6,-11.9c6.1,2.1 11.2,6.3 14.4,11.9zm-23,-13.2c2.8,4 4.9,8.5 6.4,13.2l-12.7,0c1.3,-4.7 3.5,-9.2 6.3,-13.2l0,0zm-25.8,33.2c-1.2,-4.4 -1.2,-9 0,-13.3l11.3,0c-0.6,4.4 -0.6,8.9 0,13.3l-11.3,0zm2.7,6.6l9.8,0c1,4.1 2.6,8.1 4.6,11.9c-6.1,-2.1 -11.2,-6.3 -14.4,-11.9l0,0zm9.8,-26.6l-9.8,0c3.2,-5.6 8.3,-9.8 14.4,-11.9c-2,3.8 -3.5,7.7 -4.6,11.9zm13.3,39.8c-2.8,-4 -4.9,-8.5 -6.4,-13.2l12.7,0c-1.4,4.8 -3.5,9.2 -6.3,13.2l0,0zm7.8,-19.8l-15.6,0c-0.7,-4.4 -0.7,-8.9 0,-13.3l15.6,0c0.7,4.4 0.7,8.9 0,13.3zm0.8,18.5c2,-3.8 3.6,-7.7 4.6,-11.9l9.8,0c-3.2,5.6 -8.3,9.8 -14.4,11.9l0,0zm5.9,-18.5c0.6,-4.4 0.6,-8.9 0,-13.3l11.3,0c1.1,4.4 1.1,9 0,13.3l-11.3,0z" class="st9"/>
   </g>
         <g stroke="null" id="svg_31">
    <path stroke="null" id="svg_32" d="m15.5,121l1.7,0l2.3,9.5l0.2,0.9l0.1,0l0.3,-0.9l2.9,-9.5l1.6,0l2.8,9.5l0.3,0.9l0.1,0l2.5,-10.3l1.7,0l-3.5,12.9l-1.6,0l-2.7,-9.3l-0.3,-1l-0.1,0l-0.3,1l-2.8,9.3l-1.6,0l-3.6,-13z"/>
             <path stroke="null" id="svg_33" d="m34,133.5c-0.7,-0.4 -1.2,-1 -1.6,-1.7c-0.4,-0.7 -0.6,-1.6 -0.6,-2.5c0,-0.9 0.2,-1.7 0.5,-2.4c0.4,-0.7 0.9,-1.3 1.6,-1.8s1.5,-0.7 2.3,-0.7c0.9,0 1.7,0.2 2.3,0.6c0.7,0.4 1.2,1 1.5,1.7c0.4,0.7 0.5,1.5 0.5,2.4c0,0.2 0,0.3 -0.1,0.5l-7.3,0c0,0.7 0.2,1.3 0.5,1.8c0.3,0.5 0.7,0.8 1.1,1.1s0.9,0.4 1.4,0.4c1.2,0 2.1,-0.6 2.7,-1.7l1.3,0.6c-0.4,0.7 -0.9,1.3 -1.6,1.8c-0.7,0.4 -1.5,0.6 -2.5,0.6c-0.5,-0.1 -1.3,-0.3 -2,-0.7zm5,-5.2c0,-0.4 -0.1,-0.8 -0.3,-1.2c-0.2,-0.4 -0.5,-0.7 -0.9,-1c-0.4,-0.3 -0.9,-0.4 -1.6,-0.4c-0.7,0 -1.3,0.2 -1.8,0.7s-0.8,1.1 -1,1.8l5.6,0l0,0.1z"/>
             <path stroke="null" id="svg_34" d="m45.2,133.7c-0.6,-0.3 -1,-0.7 -1.3,-1.2l-0.1,0l0,1.3l-1.5,0l0,-12.8l1.5,0l0,3.8l-0.1,1.3l0.1,0c0.3,-0.5 0.7,-0.9 1.3,-1.2c0.6,-0.3 1.2,-0.5 1.9,-0.5c0.8,0 1.6,0.2 2.2,0.6c0.7,0.4 1.2,1 1.6,1.7c0.4,0.7 0.6,1.6 0.6,2.5c0,0.9 -0.2,1.8 -0.6,2.5c-0.4,0.7 -0.9,1.3 -1.6,1.7c-0.7,0.4 -1.4,0.6 -2.2,0.6c-0.7,0.1 -1.3,0 -1.8,-0.3zm3.2,-1.4c0.5,-0.3 0.8,-0.7 1.1,-1.2c0.3,-0.5 0.4,-1.1 0.4,-1.8c0,-0.7 -0.1,-1.3 -0.4,-1.8c-0.3,-0.5 -0.7,-0.9 -1.1,-1.2c-0.5,-0.3 -1,-0.4 -1.5,-0.4c-0.5,0 -1,0.1 -1.5,0.4s-0.8,0.7 -1.1,1.2s-0.4,1.1 -0.4,1.8s0.1,1.3 0.4,1.8s0.6,0.9 1.1,1.2s1,0.4 1.5,0.4c0.5,0 1,-0.1 1.5,-0.4z"/>
             <path stroke="null" id="svg_35" d="m60.9,121l1.7,0l4.9,12.9l-1.7,0l-1.3,-3.5l-5.5,0l-1.3,3.5l-1.7,0l4.9,-12.9zm3.1,7.9l-1.7,-4.6l-0.5,-1.4l-0.1,0l-0.5,1.4l-1.7,4.6l4.5,0z"/>
             <path stroke="null" id="svg_36" d="m68.9,124.7l1.5,0l0,1.4l0.1,0c0.3,-0.5 0.7,-0.9 1.3,-1.2c0.6,-0.3 1.2,-0.5 1.9,-0.5c0.8,0 1.6,0.2 2.2,0.6s1.2,1 1.6,1.7s0.6,1.6 0.6,2.5c0,0.9 -0.2,1.8 -0.6,2.5s-0.9,1.3 -1.6,1.7s-1.4,0.6 -2.2,0.6c-0.7,0 -1.3,-0.2 -1.9,-0.5c-0.6,-0.3 -1,-0.7 -1.3,-1.2l-0.1,0l0.1,1.3l0,4l-1.5,0l0,-12.9l-0.1,0zm6,7.6c0.5,-0.3 0.8,-0.7 1.1,-1.2c0.3,-0.5 0.4,-1.1 0.4,-1.8c0,-0.7 -0.1,-1.3 -0.4,-1.8c-0.3,-0.5 -0.7,-0.9 -1.1,-1.2s-1,-0.4 -1.5,-0.4s-1,0.1 -1.5,0.4s-0.8,0.7 -1.1,1.2c-0.3,0.5 -0.4,1.1 -0.4,1.8s0.1,1.3 0.4,1.8c0.3,0.5 0.6,0.9 1.1,1.2s1,0.4 1.5,0.4s1,-0.1 1.5,-0.4z"/>
             <path stroke="null" id="svg_37" d="m79.5,124.7l1.5,0l0,1.4l0.1,0c0.3,-0.5 0.7,-0.9 1.3,-1.2c0.6,-0.3 1.2,-0.5 1.9,-0.5c0.8,0 1.6,0.2 2.2,0.6s1.2,1 1.6,1.7s0.6,1.6 0.6,2.5c0,0.9 -0.2,1.8 -0.6,2.5s-0.9,1.3 -1.6,1.7s-1.4,0.6 -2.2,0.6c-0.7,0 -1.3,-0.2 -1.9,-0.5c-0.6,-0.3 -1,-0.7 -1.3,-1.2l-0.1,0l0.1,1.3l0,4l-1.5,0l0,-12.9l-0.1,0zm6,7.6c0.5,-0.3 0.8,-0.7 1.1,-1.2c0.3,-0.5 0.4,-1.1 0.4,-1.8c0,-0.7 -0.1,-1.3 -0.4,-1.8c-0.3,-0.5 -0.7,-0.9 -1.1,-1.2s-1,-0.4 -1.5,-0.4s-1,0.1 -1.5,0.4s-0.8,0.7 -1.1,1.2c-0.3,0.5 -0.4,1.1 -0.4,1.8s0.1,1.3 0.4,1.8c0.3,0.5 0.6,0.9 1.1,1.2s1,0.4 1.5,0.4s1,-0.1 1.5,-0.4z"/>
             <path stroke="null" id="svg_38" d="m91,133.4c-0.7,-0.5 -1.1,-1.1 -1.4,-1.8l1.4,-0.6c0.2,0.6 0.6,1 1,1.3c0.5,0.3 0.9,0.5 1.5,0.5c0.6,0 1.1,-0.1 1.5,-0.4c0.4,-0.2 0.6,-0.6 0.6,-1c0,-0.4 -0.2,-0.7 -0.5,-0.9c-0.3,-0.2 -0.8,-0.4 -1.5,-0.6l-1.1,-0.3c-0.7,-0.2 -1.3,-0.5 -1.8,-0.9c-0.5,-0.4 -0.7,-1 -0.7,-1.7c0,-0.5 0.2,-1 0.5,-1.4c0.3,-0.4 0.7,-0.7 1.3,-0.9c0.5,-0.2 1.1,-0.3 1.7,-0.3c0.8,0 1.5,0.2 2.2,0.5c0.6,0.3 1.1,0.8 1.3,1.5l-1.3,0.6c-0.4,-0.8 -1.1,-1.2 -2.2,-1.2c-0.5,0 -0.9,0.1 -1.3,0.4s-0.6,0.5 -0.6,0.9c0,0.3 0.1,0.6 0.4,0.8c0.3,0.2 0.7,0.4 1.2,0.5l1.3,0.3c0.9,0.2 1.6,0.6 2,1s0.7,1 0.7,1.6c0,0.6 -0.2,1.1 -0.5,1.5c-0.3,0.4 -0.8,0.8 -1.3,1c-0.6,0.2 -1.2,0.3 -1.8,0.3c-1.1,0 -2,-0.2 -2.6,-0.7z"/>
   </g>
  </g>
 </g>
</svg>
